<svg width="80" height="28" viewBox="0 0 80 28" fill="none" xmlns="http://www.w3.org/2000/svg">
<path d="M21.0842 8.00293L15.9137 20.2294H14.1705L9 8.00293H10.7551L15.0717 18.332L19.3884 8.00293H21.0842Z" fill="black"/>
<path d="M24.0232 20.2294H22.4222V8.00293H24.0232V20.2294Z" fill="black"/>
<path d="M37.4703 8.00293L32.2998 20.2294H30.5566L25.3861 8.00293H27.1412L31.4578 18.332L35.7745 8.00293H37.4703Z" fill="black"/>
<path d="M40.4136 20.2294H38.8126V8.00293H40.4136V20.2294Z" fill="black"/>
<path d="M61.8421 8.0233L69.242 17.546V7.95215H70.8548V20.1786H69.3488L61.9488 10.656V20.2498H60.3479V8.0233H61.8421Z" fill="black"/>
<path d="M50.3871 7.55351C54.004 7.55351 56.9332 10.4945 56.9332 14.0996C56.9332 17.7047 53.9922 20.6457 50.3871 20.6457C46.782 20.6457 43.841 17.7047 43.841 14.0996C43.841 10.4945 46.782 7.55351 50.3871 7.55351ZM50.3871 6C45.9044 6 42.2756 9.62881 42.2756 14.0996C42.2756 18.5704 45.9044 22.1992 50.3752 22.1992C54.846 22.1992 58.4748 18.5704 58.4748 14.0996C58.4748 9.62881 54.8579 6 50.3871 6Z" fill="black"/>
<path d="M51.1581 6H49.6046V14.0996H51.1581V6Z" fill="black"/>
</svg>
